Coordinates
version=1
nRows=13
nColumns=38
inDegrees=no

Units are S.I. units (second, meters, Newtons, ...)
If the header above contains a line with 'inDegrees', this indicates whether rotational values are in degrees (yes) or radians (no).

endheader
time	pelvis_tilt	pelvis_list	pelvis_rotation	pelvis_tx	pelvis_ty	pelvis_tz	hip_flexion_r	hip_adduction_r	hip_rotation_r	knee_angle_r	ankle_angle_r	subtalar_angle_r	mtp_angle_r	hip_flexion_l	hip_adduction_l	hip_rotation_l	knee_angle_l	ankle_angle_l	subtalar_angle_l	mtp_angle_l	lumbar_extension	lumbar_bending	lumbar_rotation	arm_flex_r	arm_add_r	arm_rot_r	elbow_flex_r	pro_sup_r	wrist_flex_r	wrist_dev_r	arm_flex_l	arm_add_l	arm_rot_l	elbow_flex_l	pro_sup_l	wrist_flex_l	wrist_dev_l
0.6	-1.97805	1.38952	-2.7838	0.628169	0.278491	0.925392	-0.0561417	-0.334446	-0.18023	1.04308	-0.107658	0	0	0.426075	0.114919	-0.336497	0.601671	0.0827296	0	0	-0.0863542	-0.150869	0.0367604	-0.155173	-0.140347	0.0226637	0.520966	1.17594	0	0	-0.2744	-0.273544	0.324333	0.702793	0.811272	0	0
0.61	-1.96212	1.38592	-2.79191	0.626158	0.289817	0.926261	-0.0229501	-0.343227	-0.169731	1.0959	-0.164397	0	0	0.412867	0.124994	-0.335596	0.599661	0.090936	0	0	-0.0844649	-0.156812	0.029216	-0.158682	-0.139126	0.0244959	0.518252	1.17153	0	0	-0.272351	-0.279498	0.328984	0.709544	0.806674	0	0
0.62	-1.9555	1.38211	-2.79029	0.624198	0.300923	0.927493	0.0069779	-0.351094	-0.161137	1.14286	-0.218863	0	0	0.397186	0.136351	-0.329876	0.595367	0.0976304	0	0	-0.0847702	-0.16234	0.0203093	-0.160229	-0.137828	0.0272326	0.51354	1.16748	0	0	-0.269105	-0.284652	0.332759	0.713765	0.804124	0	0
0.63	-1.95808	1.3782	-2.77937	0.622313	0.311856	0.929115	0.0337316	-0.357748	-0.153695	1.18534	-0.259453	0	0	0.378758	0.148844	-0.318948	0.588455	0.102416	0	0	-0.0869652	-0.167364	0.00961359	-0.160908	-0.140961	0.0565649	0.511498	1.11194	0	0	-0.265084	-0.289177	0.336433	0.715571	0.803709	0	0
0.64	-1.96694	1.37495	-2.76206	0.620579	0.322693	0.931075	0.0585949	-0.362765	-0.147742	1.22516	-0.271271	0	0	0.358206	0.160817	-0.304481	0.579816	0.107364	0	0	-0.0905411	-0.171171	-0.000515072	-0.158937	-0.136293	0.0432587	0.499911	1.148	0	0	-0.25863	-0.294716	0.346817	0.715543	0.791933	0	0
0.65	-1.98218	1.37317	-2.73859	0.618975	0.333472	0.93327	0.082034	-0.366693	-0.145221	1.26122	-0.261171	0	0	0.33607	0.169993	-0.28986	0.571061	0.113529	0	0	-0.0946053	-0.172859	-0.0113674	-0.158427	-0.135182	0.0463744	0.494986	1.14925	0	0	-0.252272	-0.298037	0.351991	0.713003	0.791103	0	0
0.66	-2.00289	1.37255	-2.7097	0.617494	0.34417	0.935709	0.103575	-0.368749	-0.144995	1.29153	-0.239172	0	0	0.311702	0.176671	-0.275669	0.560044	0.119878	0	0	-0.0992004	-0.172787	-0.0222573	-0.158469	-0.133927	0.0478135	0.491972	1.14956	0	0	-0.245077	-0.300992	0.358358	0.70929	0.790253	0	0
0.67	-2.02577	1.37343	-2.67873	0.616104	0.354675	0.938267	0.124681	-0.367512	-0.144708	1.31587	-0.214373	0	0	0.286667	0.180506	-0.262728	0.54723	0.125953	0	0	-0.103773	-0.170814	-0.0328554	-0.159462	-0.132812	0.0479237	0.491853	1.14836	0	0	-0.237064	-0.303419	0.365459	0.704833	0.789737	0	0
0.68	-2.04659	1.3752	-2.65059	0.614793	0.365102	0.940786	0.146497	-0.367544	-0.14762	1.33506	-0.192975	0	0	0.262038	0.182198	-0.252592	0.533266	0.131948	0	0	-0.107124	-0.168043	-0.0425716	-0.161805	-0.132067	0.0485744	0.494133	1.14601	0	0	-0.229376	-0.305296	0.371495	0.701171	0.789633	0	0
0.69	-2.06304	1.37826	-2.62739	0.613537	0.375341	0.943204	0.170326	-0.362791	-0.145637	1.34922	-0.175688	0	0	0.23933	0.181973	-0.24434	0.519422	0.137196	0	0	-0.108886	-0.164358	-0.0514177	-0.164634	-0.13182	0.0503028	0.497589	1.14248	0	0	-0.22189	-0.30652	0.375598	0.698997	0.789802	0	0
0.7	-2.07762	1.38139	-2.60558	0.612235	0.385507	0.945559	0.193827	-0.35782	-0.14428	1.35841	-0.162465	0	0	0.21668	0.181698	-0.235842	0.50436	0.141295	0	0	-0.110207	-0.160686	-0.0605447	-0.168372	-0.131866	0.0518151	0.503383	1.13529	0	0	-0.214258	-0.307716	0.3799	0.697	0.791165	0	0
0.71	-2.08858	1.38507	-2.58693	0.610884	0.395521	0.947746	0.217824	-0.352869	-0.143816	1.36343	-0.152209	0	0	0.195392	0.18094	-0.227521	0.489298	0.144899	0	0	-0.110624	-0.156835	-0.0701814	-0.171976	-0.131847	0.053045	0.509319	1.12609	0	0	-0.206937	-0.308693	0.383235	0.695373	0.793972	0	0
0.72	-2.10033	1.38792	-2.56709	0.609512	0.405453	0.949875	0.240179	-0.349075	-0.1447	1.36403	-0.14323	0	0	0.172725	0.180933	-0.218568	0.472041	0.147528	0	0	-0.111982	-0.1536	-0.0794046	-0.174368	-0.126495	0.0252499	0.510209	1.1714	0	0	-0.198756	-0.312271	0.395336	0.697798	0.774197	0	0
